<svg width="1408" height="229" viewBox="0 0 1408 229" fill="none" xmlns="http://www.w3.org/2000/svg">
<g clip-path="url(#clip0_358:11)">
<path fill-rule="evenodd" clip-rule="evenodd" d="M154.21 184.395H191.383V61.0876H154.21V184.395ZM64.841 11.3451H0L0.509222 184.899H40.9075V126.768H64.4166C64.4166 126.768 133.077 129.2 132.143 67.2111C131.21 8.99641 64.841 11.3451 64.841 11.3451ZM79.6084 92.292C71.8004 96.6539 62.9738 96.4023 62.9738 96.4023H40.9075V41.5429H64.4166C64.4166 41.5429 79.6084 40.788 87.4165 52.2799C90.0475 56.0546 91.2357 61.1715 91.66 68.1338C92.4239 81.4711 86.3132 88.6012 79.6084 92.292ZM172.966 5.72498C160.405 5.72498 150.9 14.6166 150.9 26.6957C150.9 38.7748 160.66 48.5891 173.221 48.5891C185.781 48.5891 195.541 38.7748 195.541 26.6957C195.541 14.6166 185.612 5.72498 172.966 5.72498ZM306.976 61.507C291.275 56.4741 277.526 60.4166 268.445 65.1979C260.467 69.4759 256.224 74.5089 256.224 74.5089C256.224 74.5089 255.63 72.7473 254.781 70.3147C254.017 68.0499 253.168 65.1979 251.471 63.3524C249.264 60.7521 244.427 61.0037 244.427 61.0037H221.851V184.311H259.024L258.515 98.2477C258.515 98.2477 269.548 84.4909 285.334 87.5107C297.301 89.8594 297.046 103.784 297.046 103.784V184.395H334.22V102.022C334.22 102.022 334.305 91.7048 329.043 81.0517C325.139 73.2506 318.094 65.114 306.976 61.507ZM441.411 55.4675C424.013 54.2931 402.88 53.9576 386.415 61.0876C371.817 67.2949 361.633 81.7228 357.304 98.751C355.437 105.797 354.079 125.929 357.814 142.454C360.699 155.372 367.319 165.102 375.636 171.31C388.537 180.788 407.293 182.969 421.721 181.543C435.555 180.201 445.23 175.504 445.23 175.504C445.23 175.504 445.909 183.389 441.92 190.854C439.204 196.055 433.857 201.004 425.965 203.437C414.847 206.792 396.599 205.534 383.699 203.437C373.26 201.675 366.81 199.243 366.81 199.243V225.33C366.81 225.33 378.352 229.524 394.987 230.95C412.046 232.376 434.367 230.866 449.049 224.407C458.725 220.129 465.344 214.509 469.758 207.631C475.274 199.075 476.887 191.945 477.736 184.815C478.499 178.272 478.669 171.31 478.669 171.31V60.1649C478.584 60.1649 462.459 56.8935 441.411 55.4675ZM445.145 148.074C445.145 148.074 423.843 159.734 404.238 152.688C392.865 148.577 388.112 135.743 387.773 117.792C387.433 101.603 394.138 89.7755 403.729 84.7426C420.278 76.1865 445.06 83.8198 445.06 83.8198V148.074H445.145Z" fill="#424242"/>
<path fill-rule="evenodd" clip-rule="evenodd" d="M767.77 63.1008C773.456 53.2026 782.368 45.7371 792.043 42.3818C801.039 39.2781 812.497 38.0198 821.153 39.5297C833.46 41.7946 842.031 48.0019 842.031 48.0019C842.031 48.0019 843.135 48.673 844.493 49.4279C846.53 50.6023 849.5 51.9444 852.216 51.7766C854.677 51.6089 856.629 49.9312 858.072 48.5052C859.006 47.5825 860.024 46.6598 860.024 46.6598L873.603 28.7927C873.603 28.7927 861.976 17.6363 843.05 10.9257C829.895 6.31215 812.327 4.80226 796.456 6.73157C775.238 9.24805 752.408 19.4818 737.301 37.7682C725.589 52.0283 719.139 71.9085 717.866 91.8726C716.253 118.128 724.995 142.789 740.696 159.063C757.161 176.175 781.01 184.228 801.294 184.479C818.947 184.731 833.205 182.13 843.983 177.433C862.57 169.213 871.142 156.714 871.142 156.714L856.12 141.196C856.12 141.196 852.98 137.337 848.821 137.421C844.747 137.505 840.079 141.615 840.079 141.615C840.079 141.615 835.327 145.725 828.452 148.158C821.493 150.674 811.818 151.597 802.227 150.507C781.095 148.158 759.283 130.794 760.047 92.2081C760.216 83.6521 762.593 72.244 767.77 63.1008ZM902.12 182.047H1018.05V150.087H902.12V182.047ZM664.992 27.7861C653.11 17.133 637.833 10.4224 621.793 7.5704C613.391 6.06051 604.734 6.06051 596.586 6.14439C575.538 6.39604 549.653 13.7777 530.642 34.329C515.45 50.77 508.066 74.6766 507.812 92.6275C507.557 110.83 512.989 132.891 525.295 149.081C541.42 170.303 568.155 183.976 599.047 184.311C634.354 184.731 658.796 170.974 674.243 153.275C689.18 136.079 695.121 113.85 695.121 94.9763C695.121 85.4975 693.338 72.5796 688.84 61.0876C683.663 48.4213 675.431 37.2649 664.992 27.7861ZM640.719 134.066C631.383 145.641 616.616 150.507 601.169 150.507C586.996 150.507 573.162 146.061 564.081 135.911C554.915 125.677 550.502 109.656 550.502 94.0535C550.502 78.3675 555.339 63.0169 564.59 53.1187C573.586 43.3883 586.826 39.0264 600.999 39.0264C615.937 39.0264 630.45 43.7239 639.785 54.5448C648.357 64.4429 652.431 79.7096 652.431 94.473C652.346 108.817 648.612 124.251 640.719 134.066ZM1110.22 7.5704L1040.37 181.963H1073.81C1073.81 181.963 1078.4 181.963 1081.54 179.614C1085.35 176.846 1086.37 172.568 1086.37 172.568L1131.61 42.885L1176.25 172.652C1176.25 172.652 1177.78 176.93 1180.58 179.195C1183.55 181.627 1187.88 182.047 1187.88 182.047H1222.34L1152.91 7.5704H1110.22ZM1369.76 7.5704L1370.26 118.044L1284.38 12.7711C1284.38 12.7711 1281.91 9.83523 1279.03 8.57699C1276.31 7.31875 1273.17 7.65428 1273.17 7.65428H1249.41V182.13H1286.24L1285.31 71.9924L1367.8 172.568C1367.8 172.568 1372.13 178.607 1375.53 180.537C1378.07 181.963 1381.38 181.963 1381.38 181.963H1406.59V7.5704H1369.76ZM902.12 37.6843H1018.05V5.72498H902.12V37.6843ZM902.12 112.424H1018.05V80.4645H902.12V112.424Z" fill="#304FFF"/>
</g>
<defs>
<clipPath id="clip0_358:11">
<rect width="1408" height="229" fill="white"/>
</clipPath>
</defs>
</svg>
